<?xml version="1.0" encoding="utf-8"?>
<!-- Generator: Adobe Illustrator 22.0.1, SVG Export Plug-In . SVG Version: 6.00 Build 0)  -->
<svg version="1.1" xmlns="http://www.w3.org/2000/svg" xmlns:xlink="http://www.w3.org/1999/xlink" x="0px" y="0px"
	 viewBox="0 0 550.3 89.3" style="enable-background:new 0 0 550.3 89.3;" xml:space="preserve">
<style type="text/css">
	.st0{fill:#FFFFFF;}
</style>
<g id="Ebene_2">
</g>
<g id="Ebene_1">
	<g>
		<g>
			<polygon class="st0" points="3.7,45.1 3.6,89 8.3,89 8.3,44.7 			"/>
			<polygon class="st0" points="27.1,44.9 27.5,89 31,89 31,44.4 			"/>
			<path class="st0" d="M47.9,33.8c-2.1,0-5,0.3-9,0.8c-3.1,0.4-6.1,0.9-9.2,1.3c-1.1-1.4-2.7-2.1-5-2.1c-2.3,0-4.7,0.2-8.3,0.7
				c-2.9,0.4-6.1,0.8-8.2,1.2v-2.4H0v4.4l3.2,0l0,1.5c2.9-0.4,5.9-0.8,8.8-1.3c3.6-0.5,6.5-0.7,8.9-0.8c2.3,0,4,0.7,5.1,2
				c3.2-0.4,6.3-0.9,9.4-1.4c4.1-0.6,7.2-0.9,9.3-0.9c4.1,0,6.2,2.3,6.3,6.4L51.5,89h2.2V39.9C53.7,35.9,52,33.8,47.9,33.8z"/>
		</g>
		<g>
			<polygon class="st0" points="66.1,37 70.6,37.2 71.5,89 74.3,89 74.3,33.2 66.1,33.2 			"/>
			<polygon class="st0" points="66.1,12.6 66.1,15.4 70.5,15.7 70.9,22.9 74.3,22.9 74.3,12.6 			"/>
		</g>
		<g>
			<polygon class="st0" points="92,64 91.9,89 95,89 95,68.5 			"/>
			<polygon class="st0" points="113.5,36.5 113.5,36.7 97.8,61.5 113.5,89 117.3,89 100.1,58.6 115.6,34.4 115.6,33.2 108.2,33.2 
				106.7,36.1 			"/>
			<polygon class="st0" points="90.9,3.2 91.9,59.4 95,55 95,0.2 86.7,0.2 86.7,3.3 			"/>
		</g>
		<g>
			<polygon class="st0" points="130,43.8 130.7,89 132.1,89 132.1,43.4 			"/>
			<path class="st0" d="M147,33.8c-2,0-4.5,0.2-7.4,0.7c-2.5,0.4-5.4,0.8-7.4,1.2v-2.4h-6.2v3.1l4.6-0.1l-0.2,1.5
				c2.5-0.4,4.9-0.8,7.4-1.3c3-0.5,5.5-0.7,7.5-0.8c4.1,0,6.2,1.9,6.3,6l0.1,10h1.2V39.9C152.8,35.9,151.1,33.8,147,33.8z"/>
		</g>
		<g>
			<path class="st0" d="M187.7,33.2h-18.6c-2.6,0-4.4,1.3-5.4,3c0.9-0.5,2.1-0.6,3.6-0.6l18.9-0.1c4.3,0,6.4,2.1,6.5,6.4l0.5,42.3
				c0,0.7-0.1,1.4-0.2,2c0.8-1,1.2-2.4,1.2-4.2V40.5C194,36.3,191.9,33.2,187.7,33.2z"/>
			<polygon class="st0" points="168,42.5 168.7,84.3 185.4,84.6 185.5,82.8 169.3,82.8 169.3,42.5 			"/>
		</g>
		<g>
			<polygon class="st0" points="206.1,88.2 206.1,88.4 206.2,88.4 			"/>
			<polygon class="st0" points="212.4,43.9 213.3,89 212.6,89 212.6,43.6 			"/>
			<polygon class="st0" points="235.8,43.6 236.1,89 237.4,89 237.4,43.3 			"/>
			<path class="st0" d="M254.3,33.8c-2.1,0-5,0.3-9.1,0.8c-3.1,0.4-6.1,0.9-9.2,1.3c-1.1-1.4-2.7-2.1-5-2.1c-2.3,0-5.7,0.2-9.2,0.7
				c-2.9,0.4-5,0.8-9.1,1.2v-2.4h-6.2v3.6l6.5-0.1l-0.1,1.5c2.8-0.4,5.6-0.8,8.4-1.2c3.4-0.5,6.2-0.7,8.5-0.7c2.2,0,3.8,0.6,4.9,1.9
				c3-0.4,6-0.9,9-1.3c3.9-0.5,6.9-0.8,8.9-0.9c4,0,6,2.2,6,6.1L259,89h1.1V39.9C260.1,35.9,258.4,33.8,254.3,33.8z"/>
		</g>
		<g>
			<path class="st0" d="M273.2,59c1-0.8,2.4-1,4.3-1l17.9-0.5l0-1.5h-16.6C276,56,274.2,57.2,273.2,59z"/>
			<polygon class="st0" points="280.8,41.4 279.1,41.5 278.9,49.8 280.8,49.8 			"/>
			<polygon class="st0" points="278.7,64.1 278,64.1 278.4,84 295.5,83.5 295.1,81.7 278.7,82 			"/>
			<path class="st0" d="M297.2,33.2h-17.8c-2,0-3.6,1-4.6,2c0.9-0.4,1.9-0.4,3.1-0.4l18.3-0.1c4.3,0,6.4,2.4,6.5,6.7L303,89h0.4
				V40.5C303.5,36.3,301.3,33.2,297.2,33.2z"/>
		</g>
		<polygon class="st0" points="317.2,87.3 315.8,4.5 315.8,89 324.1,89 324.1,87.2 		"/>
		<g>
			<polygon class="st0" points="337.1,86.9 336.2,33.2 336.5,33.2 336.5,89 342.7,89 342.7,87.2 			"/>
			<polygon class="st0" points="361.6,86.8 360.4,38.5 344,39.3 343.8,41.2 359.2,40.8 359.2,89 367.5,89 367.5,86.7 			"/>
			<polygon class="st0" points="385,86.3 384.1,38 367.7,38.8 368.3,41.2 384,40.8 384,89 390.2,89 390.2,86.2 			"/>
		</g>
		<g>
			<path class="st0" d="M428.5,88.1l-0.4-1.5c-0.8,0.1-0.8,0.2-2.9,0.4v2h8.3v-0.9L428.5,88.1z"/>
			<polygon class="st0" points="425.3,56 427.3,56 427.3,39.4 411.4,39.1 411.8,39.4 425.3,39.4 			"/>
			<polygon class="st0" points="428,81.3 428,61.8 411.3,61.9 411.4,62.1 425.3,62.1 425.3,81.4 			"/>
			<path class="st0" d="M410.5,88.7c-4.1,0-6.2-2-6.2-6l-0.2-20.1c0-3,1.2-4.9,3.3-5.8c-3.3,0.4-4.8,2.5-4.8,6.2v19.8
				c0,4,1.9,6,5.9,6c0.7,0,1.5,0,2.3-0.1C410.7,88.7,410.6,88.7,410.5,88.7z"/>
			<path class="st0" d="M410.8,49l-5.9,0.1l-0.3-9.3c0-2.4,0.4-4.2,1.8-5.2c-2.4,0.8-3.9,2.7-3.9,5.9v9.3h8.3V49z"/>
		</g>
		<g>
			<polygon class="st0" points="455.3,55.1 468.2,33.2 466.7,33.2 455.2,51.9 			"/>
			<polygon class="st0" points="470.8,87.7 455.3,59.8 455.4,65.9 467.7,89 475.8,89 475.3,87.9 			"/>
			<polygon class="st0" points="447.8,87.5 447.2,0.2 445.9,0.2 445.9,89 452.1,89 452.1,87.9 			"/>
		</g>
		<g>
			<polygon class="st0" points="487.1,87.1 486.3,33.2 483.1,33.2 483.1,89 491.3,89 491.3,87.5 			"/>
			<polygon class="st0" points="507.9,50.3 507.8,39 493.9,39.6 493.4,41.1 503.7,40.8 503.7,51.8 512,51.8 512,50.3 			"/>
		</g>
		<g>
			<polygon class="st0" points="549.2,80.2 548.8,38.4 532.2,39 532.3,41.5 545,41.5 545,80.3 			"/>
			<path class="st0" d="M550.5,86.8L531.6,87c-4.2,0-6.4-2.1-6.4-6.3l-0.5-42.3c0-1.7,0.8-3.1,1.4-4.1c-2.9,0.6-3.9,2.6-3.9,6.1
				v41.7c0,4.2,1.2,6.9,5.3,6.9h18.6c2.1,0,3.7-0.8,4.8-1.9C550.8,87.1,550.7,86.8,550.5,86.8z"/>
		</g>
	</g>
</g>
</svg>
