<?xml version="1.0" encoding="utf-8"?>
<!-- Generator: Adobe Illustrator 22.0.1, SVG Export Plug-In . SVG Version: 6.00 Build 0)  -->
<svg version="1.1" id="Ebene_1" xmlns="http://www.w3.org/2000/svg" xmlns:xlink="http://www.w3.org/1999/xlink" x="0px" y="0px"
	 viewBox="0 0 127.6 127.6" style="enable-background:new 0 0 127.6 127.6;" xml:space="preserve">
<style type="text/css">
	.st0{fill:#FFFFFF;}
</style>
<g id="Ebene_2_1_">
</g>
<g>
	<path class="st0" d="M12.6,25.3C4.8,35.9,0.2,49,0.2,63.2c0,14.2,4.6,27.3,12.5,37.8V25.3z"/>
	<path class="st0" d="M75.6,126.7v-16.6l-7,4l-14-22.3L39.7,114l-8.4-4.1v8.1c9.8,5.6,20.8,9.5,32.6,9.5c4.9,0,10.1-0.4,14.7-0.9
		H75.6z"/>
	<polygon class="st0" points="75.6,57.5 64.3,74.9 75.6,92.2 	"/>
	<path class="st0" d="M64.3,0C44.2,0,25.6,9.1,13.9,23.8h18L54,58l21.6-34.2l0,0h18.7v94.9c19.7-10.9,33.1-31.4,33.1-55.3
		C127.4,28.3,99.4,0,64.3,0z"/>
	<polygon class="st0" points="31.3,57.1 31.3,92.6 42.9,74.9 	"/>
</g>
</svg>
